<svg width="40" height="40" viewBox="0 0 40 40" fill="none" xmlns="http://www.w3.org/2000/svg">
<g clip-path="url(#clip0_25_163)">
<path d="M26 31.25C25.8528 34.9539 22.7662 38.0988 18.6313 37.9977C17.6693 37.9741 16.4803 37.6388 14.1022 36.968C8.37923 35.3537 3.4111 32.6407 2.21911 26.5631C2 25.4459 2 24.1888 2 21.6745L2 18.3255C2 15.8112 2 14.5541 2.21911 13.4369C3.4111 7.35927 8.37923 4.64627 14.1022 3.032C16.4803 2.36123 17.6693 2.02585 18.6313 2.00232C22.7662 1.90116 25.8528 5.04609 26 8.74998" stroke="#141B34" stroke-width="3" stroke-linecap="round"/>
<path d="M16 20H38M16 20C16 18.5995 19.9886 15.9831 21 15M16 20C16 21.4005 19.9886 24.0169 21 25" stroke="#141B34" stroke-width="3" stroke-linecap="round" stroke-linejoin="round"/>
</g>
<defs>
<clipPath id="clip0_25_163">
<path d="M0 12C0 5.37258 5.37258 0 12 0H28C34.6274 0 40 5.37258 40 12V28C40 34.6274 34.6274 40 28 40H12C5.37258 40 0 34.6274 0 28V12Z" fill="white"/>
</clipPath>
</defs>
</svg>
